<svg width="72" height="72" viewBox="0 0 72 72" fill="none" xmlns="http://www.w3.org/2000/svg">
<path d="M7.33454 4.33787C7.70054 1.60081 10.2161 -0.321312 12.9531 0.0446939L67.4679 7.33454C70.2049 7.70054 72.1271 10.2161 71.7611 12.9531L64.4712 67.4679C64.1052 70.2049 61.5897 72.1271 58.8526 71.7611L4.33787 64.4712C1.60081 64.1052 -0.321312 61.5897 0.0446939 58.8526L7.33454 4.33787Z" fill="#1C1C1C"/>
<path d="M29.9896 6.01338C30.1726 5.84508 30.4404 5.79922 30.669 5.89704L55.7132 16.6127C56.2752 16.8532 56.1684 17.6607 55.5608 17.7647L10.4647 25.487C9.85709 25.591 9.48767 24.8651 9.93766 24.4513L29.9896 6.01338Z" fill="#3CF388"/>
<path d="M24.1173 61.7022L11.0656 29.8481L21.143 28.1225L28.5302 49.6485L28.9967 26.7776L37.9385 25.2464L46.13 46.6347L45.7922 23.9016L55.8695 22.1759L54.3966 56.5172L42.758 58.5102L35.9985 41.5031L35.2828 59.7903L24.1173 61.7022Z" fill="white"/>
</svg>
